<svg id="Ebene_1" xmlns="http://www.w3.org/2000/svg" xml:space="preserve" viewBox="0 0 841.9 1190.6" version="1.1" y="0px" x="0px" xmlns:xlink="http://www.w3.org/1999/xlink" enable-background="new 0 0 841.9 1190.6">
           <polygon points="802.5 637.4 820.6 560.6 793.5 524.5 775.4 370.8 752.8 352.7 770.9 280.4 752.8 212.6 644.3 117.7 594.6 135.8 612.7 108.7 508.8 185.5 445.5 185.5 472.6 126.8 386.8 122.3 368.7 99.6 368.7 54.5 341.6 45.4 264.7 36.4 296.4 99.6 264.7 126.8 305.4 199.1 260.2 212.6 264.7 280.4 251.2 248.8 219.5 262.4 210.5 230.7 183.4 226.2 142.7 230.7 124.6 262.4 165.3 298.5 124.6 294 111.1 366.3 84 384.4 120.1 429.6 79.4 488.3 29.7 483.8 29.7 655.5 52.3 696.2 34.2 732.4 56.9 791.1 52.3 818.2 93 863.4 210.5 895 165.3 1012.6 165.3 1075.8 278.3 1071.3 337.1 1093.9 368.7 1084.9 409.4 1112 431.9 1084.9 490.7 1102.9 590.1 1066.8 635.3 1084.9 653.4 1075.8 644.3 994.5 725.7 926.7 612.7 822.7 563 709.7 590.1 732.4 752.8 632.9 757.3 596.8" fill="transparent" stroke="#529587"/>
          </svg>